<?xml version="1.0" encoding="UTF-8"?>
<svg id="Layer_1" xmlns="http://www.w3.org/2000/svg" version="1.1" viewBox="0 0 595.28 841.89">
  <!-- Generator: Adobe Illustrator 30.2.1, SVG Export Plug-In . SVG Version: 2.1.1 Build 1)  -->
  <defs>
    <style>
      .st0 {
        fill: #fff;
      }
    </style>
  </defs>
  <path class="st0" d="M310.7,419.23l-6.25-2.6,5.9-2.64c1.26-.56.71-2.46-.66-2.26l-7.87,1.17,1.67-7.14c.3-1.27-1.38-2.02-2.13-.95l-4.22,6-4.36-6.66c-.76-1.16-2.54-.31-2.12,1.01l1.96,6.16-6.1-2.94c-1.29-.62-2.38,1.16-1.23,2.02l5.06,3.8-6.25.49c-1.41.11-1.48,2.16-.07,2.36l7.38,1.05-4.48,5.11c-.88,1,.31,2.47,1.47,1.82l6.59-3.67c-.81,6.23-.08,12.86,2.23,18.33,1.8-4.26,2.63-9.23,2.53-14.15l.43-3.5,5.69,4.82c1.08.92,2.57-.49,1.71-1.62l-3.79-5,6.2,1.25c1.41.28,2.02-1.71.69-2.26Z"/>
</svg>